{
  "asset": {
    "generator": "Khronos glTF Blender I/O v5.1.20",
    "version": "2.0"
  },
  "scene": 0,
  "scenes": [
    {
      "name": "Scene",
      "nodes": [
        0,
        1
      ]
    }
  ],
  "nodes": [
    {
      "mesh": 0,
      "name": "bunsen_burner"
    },
    {
      "mesh": 1,
      "name": "burner_stand"
    }
  ],
  "materials": [
    {
      "doubleSided": true,
      "name": "bunsen_burner",
      "normalTexture": {
        "index": 0
      },
      "pbrMetallicRoughness": {
        "baseColorTexture": {
          "index": 1
        },
        "metallicRoughnessTexture": {
          "index": 2
        }
      }
    }
  ],
  "meshes": [
    {
      "name": "Cylinder.037",
      "primitives": [
        {
          "attributes": {
            "POSITION": 0,
            "NORMAL": 1,
            "TEXCOORD_0": 2
          },
          "indices": 3,
          "material": 0
        }
      ]
    },
    {
      "name": "Cylinder.039",
      "primitives": [
        {
          "attributes": {
            "POSITION": 4,
            "NORMAL": 5,
            "TEXCOORD_0": 6
          },
          "indices": 7,
          "material": 0
        }
      ]
    }
  ],
  "textures": [
    {
      "sampler": 0,
      "source": 0
    },
    {
      "sampler": 0,
      "source": 1
    },
    {
      "sampler": 0,
      "source": 2
    }
  ],
  "images": [
    {
      "mimeType": "image/jpeg",
      "name": "bunsen_burner_nor_gl",
      "uri": "textures/bunsen_burner_nor_gl_1k.jpg"
    },
    {
      "mimeType": "image/jpeg",
      "name": "bunsen_burner_diff",
      "uri": "textures/bunsen_burner_diff_1k.jpg"
    },
    {
      "mimeType": "image/jpeg",
      "name": "bunsen_burner_metal-bunsen_burner_rough",
      "uri": "textures/bunsen_burner_arm_1k.jpg"
    }
  ],
  "accessors": [
    {
      "bufferView": 0,
      "componentType": 5126,
      "count": 4565,
      "max": [
        0.044999998062849045,
        0.15300002694129944,
        0.03999999910593033
      ],
      "min": [
        -0.04392136260867119,
        0,
        -0.03999999910593033
      ],
      "type": "VEC3"
    },
    {
      "bufferView": 1,
      "componentType": 5126,
      "count": 4565,
      "type": "VEC3"
    },
    {
      "bufferView": 2,
      "componentType": 5126,
      "count": 4565,
      "type": "VEC2"
    },
    {
      "bufferView": 3,
      "componentType": 5123,
      "count": 16086,
      "type": "SCALAR"
    },
    {
      "bufferView": 4,
      "componentType": 5126,
      "count": 2256,
      "max": [
        0.06944694370031357,
        0.1731255203485489,
        0.06944694370031357
      ],
      "min": [
        -0.06944694370031357,
        0.000008119491212710273,
        -0.06944694370031357
      ],
      "type": "VEC3"
    },
    {
      "bufferView": 5,
      "componentType": 5126,
      "count": 2256,
      "type": "VEC3"
    },
    {
      "bufferView": 6,
      "componentType": 5126,
      "count": 2256,
      "type": "VEC2"
    },
    {
      "bufferView": 7,
      "componentType": 5123,
      "count": 9216,
      "type": "SCALAR"
    }
  ],
  "bufferViews": [
    {
      "buffer": 0,
      "byteLength": 54780,
      "byteOffset": 0,
      "target": 34962
    },
    {
      "buffer": 0,
      "byteLength": 54780,
      "byteOffset": 54780,
      "target": 34962
    },
    {
      "buffer": 0,
      "byteLength": 36520,
      "byteOffset": 109560,
      "target": 34962
    },
    {
      "buffer": 0,
      "byteLength": 32172,
      "byteOffset": 146080,
      "target": 34963
    },
    {
      "buffer": 0,
      "byteLength": 27072,
      "byteOffset": 178252,
      "target": 34962
    },
    {
      "buffer": 0,
      "byteLength": 27072,
      "byteOffset": 205324,
      "target": 34962
    },
    {
      "buffer": 0,
      "byteLength": 18048,
      "byteOffset": 232396,
      "target": 34962
    },
    {
      "buffer": 0,
      "byteLength": 18432,
      "byteOffset": 250444,
      "target": 34963
    }
  ],
  "samplers": [
    {
      "magFilter": 9729,
      "minFilter": 9987
    }
  ],
  "buffers": [
    {
      "byteLength": 268876,
      "uri": "bunsen_burner.bin"
    }
  ]
}